<svg aria-hidden="true" style="position: absolute; width: 0; height: 0; overflow: hidden;" version="1.1" xmlns="http://www.w3.org/2000/svg" xmlns:xlink="http://www.w3.org/1999/xlink">
<defs>
<symbol id="icon-logo" viewBox="0 0 84 22">
<path fill="#fff" style="fill: var(--color1, #fff)" opacity="0.3" d="M4.267 0v23.467h35.735l9.404-11.733-9.404-11.733h-35.735zM20.383 10.537c-0.056-0.044-0.111-0.089-0.166-0.133-0.138-0.111-0.274-0.22-0.415-0.325-0.382-0.289-0.797-0.519-1.273-0.622-0.526-0.114-1.056-0.155-1.581 0.002-0.748 0.224-1.268 0.712-1.612 1.391-0.286 0.565-0.362 1.165-0.287 1.788 0.060 0.488 0.218 0.941 0.509 1.342 0.447 0.617 1.056 0.973 1.818 1.067 0.686 0.085 1.35 0 1.978-0.298 0.215-0.102 0.215-0.104 0.215-0.339v-0.004c0-0.057 0-0.114 0-0.171 0-0.114 0.001-0.227-0-0.342-0-0.023 0-0.042 0-0.059 0.001-0.048 0.001-0.072-0.011-0.084s-0.040-0.013-0.095-0.012c-0.014 0-0.029 0-0.047 0h-1.993c-0.018 0-0.034 0-0.048 0-0.056 0.001-0.083 0.001-0.096-0.012s-0.012-0.037-0.011-0.086c0-0.016 0.001-0.035 0.001-0.057-0.001-0.525-0.001-1.051-0-1.576v-0.005c0-0.261 0-0.522 0-0.783 0-0.009 0-0.019 0.001-0.029 0.001-0.020 0.001-0.039-0.001-0.059-0.004-0.046 0.013-0.071 0.063-0.066 0.020 0.002 0.040 0.001 0.060 0.001l0.017-0 0.012-0h5.039c0.033 0 0.061 0.006 0.056 0.047-0.002 0.025 0.014 0.042 0.030 0.059 0.020 0.021 0.040 0.042 0.029 0.079-0.010 0.032-0.007 0.067-0.005 0.102 0.001 0.016 0.002 0.032 0.002 0.047l-0 0.898c-0 1.197-0 2.395 0.003 3.592 0 0.098-0.030 0.159-0.105 0.22-0.938 0.769-1.993 1.307-3.187 1.574-0.706 0.158-1.421 0.201-2.143 0.144-0.853-0.068-1.664-0.284-2.413-0.694-1.375-0.753-2.241-1.897-2.639-3.389-0.175-0.659-0.229-1.331-0.173-2.009 0.21-2.514 1.994-4.476 4.386-5.021 0.683-0.156 1.372-0.179 2.068-0.133 0.533 0.036 1.058 0.119 1.57 0.269 0.768 0.226 1.446 0.617 2.063 1.117 0.072 0.059 0.143 0.118 0.213 0.178 0.089 0.075 0.091 0.118 0.014 0.21-0.388 0.463-0.777 0.925-1.167 1.386l-0.001 0.001c-0.194 0.231-0.388 0.462-0.583 0.692-0.005 0.006-0.010 0.013-0.015 0.020-0.021 0.029-0.044 0.059-0.081 0.082zM34.318 8.135c0.911 0.823 1.47 1.849 1.694 3.046 0.249 1.332 0.070 2.608-0.598 3.798-0.792 1.411-2.001 2.316-3.578 2.725-1.357 0.353-2.703 0.281-4.002-0.253-1.691-0.697-2.784-1.948-3.297-3.667-0.458-1.537-0.292-3.032 0.528-4.426 0.799-1.359 2.001-2.209 3.537-2.606 0.529-0.136 1.028-0.19 1.696-0.191 1.446 0.011 2.845 0.515 4.019 1.574zM29.956 9.422c1.61-0.004 2.662 0.893 2.949 2.137 0.174 0.749 0.096 1.477-0.276 2.158-0.438 0.799-1.121 1.265-2.040 1.369-0.889 0.101-1.664-0.148-2.298-0.781-0.406-0.405-0.651-0.9-0.755-1.457-0.132-0.707-0.051-1.391 0.297-2.025 0.512-0.934 1.329-1.382 2.123-1.4z"></path>
<path fill="#fff" style="fill: var(--color1, #fff)" opacity="0.3" d="M49.406 0h35.927v23.467h-35.927v-23.467zM61.468 12.025v5.29c0 0.011 0 0.023 0.001 0.034 0.001 0.022 0.001 0.044-0.001 0.066-0.005 0.061 0.012 0.098 0.083 0.088 0.017-0.002 0.034-0.001 0.051-0.001 0.009 0 0.017 0.001 0.025 0.001 0.3 0 0.6 0 0.9 0h0.002c0.6 0 1.2 0.001 1.8-0 0.019 0 0.036 0 0.050 0 0.058 0.001 0.086 0.001 0.099-0.013s0.012-0.039 0.011-0.089c-0-0.009-0-0.018-0.001-0.028s-0-0.020-0-0.031v-10.618l-0-0.012-0-0.013c-0.001-0.017-0.001-0.033 0.001-0.050 0.006-0.063-0.015-0.095-0.084-0.088-0.014 0.002-0.028 0.001-0.042 0.001-0.007-0-0.014-0.001-0.022-0.001-0.303 0-0.606-0-0.909-0-0.606-0-1.213-0.001-1.819 0-0.007 0-0.013-0-0.019-0-0.010-0-0.020-0-0.028-0-0.050-0.001-0.075-0.001-0.087 0.011s-0.012 0.037-0.012 0.088c0 0.014 0 0.030 0 0.049v5.315zM76.518 6.562h-4.508c-1.501 0-3.003 0-4.503-0.001-0.011 0-0.023 0-0.034 0-0.022 0-0.045 0.001-0.068-0-0.051-0.003-0.069 0.021-0.065 0.068 0.001 0.014 0.001 0.028 0 0.041-0 0.007-0 0.014-0 0.021v2.54c0 0.073-0.002 0.106 0.013 0.121s0.050 0.012 0.125 0.012h2.831c0.092 0 0.138 0 0.16 0.022s0.022 0.066 0.022 0.153v7.83c0 0.072-0.004 0.106 0.010 0.121s0.049 0.013 0.125 0.013h2.717c0.085 0 0.127 0 0.148-0.021s0.021-0.061 0.021-0.142v-7.83c0-0.079-0.005-0.115 0.011-0.132s0.054-0.013 0.14-0.013h2.882c0.124 0 0.124 0 0.126-0.121v-2.527c0-0.087 0.005-0.126-0.012-0.142s-0.056-0.012-0.142-0.012z"></path>
</symbol>
</defs>
</svg>
